<?xml version="1.0" encoding="UTF-8"?>
<svg id="Layer_1" data-name="Layer 1" xmlns="http://www.w3.org/2000/svg" viewBox="0 0 415.31 388.01">
  <defs>
    <style>
      .cls-1 {
        fill: white;
      }

      .cls-1, .cls-2, .cls-3, .cls-4, .cls-5 {
        stroke-width: 0px;
      }

      .cls-2 {
        fill: white;
      }

      .cls-3 {
        fill: white;
      }

      .cls-4 {
        fill: white;
      }

      .cls-5 {
        fill: white;
      }
    </style>
  </defs>
  <path class="cls-2" d="M221.43,171.23v-98.38c.04-.11.07-.23.11-.35,13.98-5.46,23.89-19.05,23.89-34.97,0-20-15.64-36.34-35.36-37.47-.37-.04-.75-.07-1.14-.07-.17,0-.35.01-.52.01-.17,0-.35-.01-.52-.01-20.73,0-37.54,16.81-37.54,37.54,0,16.74,10.95,30.91,26.08,35.75v97.47c-22.03,5.23-38.42,25.01-38.42,48.64,0,5.73.98,11.22,2.75,16.35l12.47-12.47c-.14-1.27-.22-2.57-.22-3.88,0-19.33,15.67-35,35-35,17.65,0,32.24,13.07,34.65,30.06h15.11c-2.04-20.76-16.77-37.79-36.34-43.22Z"/>
  <path class="cls-4" d="M208.01,194.4c-13.81,0-25,11.19-25,25,0,2.5.37,4.91,1.05,7.19l-89.99,89.99c-4.84-2.28-10.25-3.56-15.96-3.56-20.71,0-37.5,16.79-37.5,37.5s16.79,37.5,37.5,37.5,37.5-16.79,37.5-37.5c0-5.87-1.35-11.42-3.75-16.36l90.41-90.42c1.84.43,3.76.67,5.74.67,13.81,0,25-11.19,25-25s-11.19-25-25-25Z"/>
  <g>
    <path class="cls-1" d="M153.04,243.46c-3.23-7.37-5.04-15.5-5.04-24.06,0-25.53,15.95-47.32,38.42-55.98v-15.85c-30.9,9.27-53.42,37.92-53.42,71.83,0,12.76,3.19,24.77,8.81,35.28l11.22-11.22Z"/>
    <g>
      <path class="cls-1" d="M377.81,109.9c-20.71,0-37.5,16.79-37.5,37.5,0,1.12.06,2.22.15,3.31l-69.1,28.57c-9.22-14.52-23.29-25.66-39.94-31.13v15.99c21.5,9.12,36.58,30.43,36.58,55.26,0,8.06-1.6,15.75-4.49,22.77l11.29,11.29c5.23-10.23,8.19-21.8,8.19-34.07,0-5.87-.69-11.58-1.97-17.07l69.83-28.87c6.82,7.05,16.37,11.43,26.95,11.43,20.71,0,37.5-16.79,37.5-37.5s-16.79-37.5-37.5-37.5Z"/>
      <path class="cls-1" d="M208.01,279.4c-8.06,0-15.75-1.6-22.78-4.49l-11.29,11.29c10.23,5.23,21.8,8.19,34.07,8.19s24.77-3.19,35.28-8.81l-11.22-11.22c-7.37,3.23-15.5,5.04-24.06,5.04Z"/>
    </g>
  </g>
  <g>
    <path class="cls-5" d="M121.33,169.52l-46.45-19.28c.07-.94.12-1.89.12-2.84,0-20.71-16.79-37.5-37.5-37.5S0,126.69,0,147.4s16.79,37.5,37.5,37.5c10.75,0,20.44-4.53,27.28-11.78l46.89,19.46c-2.37,8.54-3.66,17.53-3.66,26.83,0,19.7,5.7,38.07,15.54,53.56l10.93-10.93c-7.28-12.53-11.47-27.09-11.47-42.63,0-39.49,26.93-72.68,63.42-82.23v-15.43c-27.81,6.12-51.27,23.82-65.09,47.78Z"/>
    <path class="cls-5" d="M274.9,167l14.32-5.92c-13.78-19.15-34.15-33.23-57.8-38.91v15.53c17.43,4.99,32.57,15.41,43.48,29.3Z"/>
    <g>
      <path class="cls-5" d="M282.21,260.86l10.97,10.97c9.4-15.24,14.83-33.2,14.83-52.43,0-5.73-.49-11.34-1.42-16.81l-14.28,5.9c.46,3.57.7,7.21.7,10.91,0,15.06-3.93,29.19-10.8,41.46Z"/>
      <path class="cls-5" d="M250.63,292.93c-12.53,7.28-27.09,11.47-42.63,11.47s-29.19-3.93-41.46-10.8l-10.97,10.97c15.24,9.4,33.2,14.84,52.43,14.84s38.07-5.7,53.56-15.54l-10.93-10.93Z"/>
    </g>
  </g>
  <path class="cls-3" d="M339.28,312.93c-5.61,0-10.92,1.24-15.7,3.45l-72.16-72.16c3.41-5.96,5.64-12.69,6.34-19.87h-15.11c-2.4,16.99-16.99,30.06-34.65,30.06-.74,0-1.46-.03-2.19-.07l-12.79,12.79c4.73,1.48,9.76,2.28,14.98,2.28,9.51,0,18.4-2.66,25.97-7.28l71.69,71.69c-2.48,5.01-3.88,10.65-3.88,16.62,0,20.71,16.79,37.5,37.5,37.5s37.5-16.79,37.5-37.5-16.79-37.5-37.5-37.5Z"/>
</svg>