<?xml version="1.0" encoding="utf-8"?>
<!-- Generator: Adobe Illustrator 28.2.0, SVG Export Plug-In . SVG Version: 6.00 Build 0)  -->
<svg version="1.1" id="Layer_1" xmlns="http://www.w3.org/2000/svg" xmlns:xlink="http://www.w3.org/1999/xlink" x="0px" y="0px"
	 viewBox="0 0 841.89 595.28" style="enable-background:new 0 0 841.89 595.28;" xml:space="preserve">
<style type="text/css">
	.st0{fill:#4F4F4F;}
	.st1{fill:#E93925;}
	.st2{fill:#5F80BD;}
	.st3{fill:#F49D20;}
	.st4{fill:#AE549B;}
	.st5{fill:#89C14F;}
</style>
<g>
	<path class="st0" d="M381.81,329.71l-1.5-15.66h-16.49l-4,15.66h-13.74l21.77-75.41h18.52l9.29,75.41H381.81z M366.53,303.66h12.79
		l-3.41-36.09L366.53,303.66z"/>
	<polygon class="st0" points="415.27,329.71 401.77,329.71 408.76,249.76 422.27,249.76 	"/>
	<path class="st0" d="M452.55,271.03h3.59c8.2,0,11.96,3.94,11.27,11.83l-3.06,35.01c-0.69,7.89-5.14,11.83-13.34,11.83h-3.59
		c-4.38,0-7.02-1.67-7.93-5.02l-1.86,21.27h-13.5l6.56-74.93h13.38l-0.47,5.38C445.03,272.83,448.01,271.03,452.55,271.03
		 M450.89,315.97l2.73-31.19c0.11-1.27-0.05-2.13-0.49-2.57c-0.44-0.44-1.3-0.66-2.57-0.66h-3.59c-2.47,0-3.82,1.32-4.05,3.94
		l-2.6,29.75c-0.23,2.63,0.89,3.94,3.36,3.94h3.58c1.27,0,2.17-0.22,2.69-0.66C450.47,318.1,450.78,317.24,450.89,315.97"/>
	<path class="st0" d="M499.64,271.03h3.59c8.2,0,11.96,3.94,11.27,11.83l-4.1,46.85h-13.62l3.93-44.93
		c0.11-1.27-0.05-2.13-0.49-2.57c-0.44-0.44-1.3-0.66-2.57-0.66h-3.59c-2.47,0-3.82,1.32-4.05,3.94l-3.87,44.22h-13.5l6.99-79.95
		h13.5l-2.3,26.29C492.32,272.71,495.25,271.03,499.64,271.03"/>
	<path class="st0" d="M548.99,271.04h13.39l-5.13,58.67h-13.62l0.44-5.02c-1.49,3.35-4.38,5.02-8.68,5.02h-3.71
		c-8.13,0-11.84-3.94-11.15-11.83l3.06-35.01c0.69-7.89,5.1-11.83,13.22-11.83h3.7c4.7,0,7.36,1.91,7.98,5.73L548.99,271.04z
		 M537.25,319.19h3.59c2.47,0,3.82-1.32,4.05-3.94l2.6-29.76c0.23-2.63-0.89-3.94-3.36-3.94h-3.59c-1.27,0-2.17,0.22-2.69,0.66
		c-0.52,0.44-0.83,1.3-0.94,2.57l-2.73,31.19c-0.11,1.27,0.05,2.13,0.49,2.57C535.12,318.98,535.97,319.19,537.25,319.19"/>
	<polygon class="st0" points="582.78,319.19 605.72,319.19 604.8,329.71 568,329.71 574.59,254.3 610.44,254.3 609.52,264.82 
		587.53,264.82 585.71,285.73 604.23,285.73 603.3,296.37 584.78,296.37 	"/>
	<path class="st0" d="M642.39,249.76h13.62l-6.99,79.95h-13.38l0.51-5.86c-1.3,3.9-4.3,5.86-9,5.86h-3.7
		c-8.13,0-11.84-3.94-11.15-11.83l3.08-35.13c0.69-7.89,5.1-11.83,13.22-11.83h3.7c4.3,0,6.9,1.67,7.81,5.02L642.39,249.76z
		 M629.03,319.19h3.59c2.47,0,3.82-1.32,4.05-3.94l2.6-29.76c0.13-1.51-0.06-2.57-0.56-3.16c-0.51-0.6-1.44-0.9-2.79-0.9h-3.59
		c-1.27,0-2.17,0.22-2.69,0.66c-0.52,0.44-0.83,1.3-0.94,2.57l-2.74,31.31c-0.11,1.27,0.05,2.13,0.49,2.57
		C626.89,318.98,627.75,319.19,629.03,319.19"/>
	<path class="st0" d="M688.21,271.03h13.62l-5.13,58.68h-13.38l0.51-5.86c-1.3,3.9-4.3,5.86-8.99,5.86h-3.71
		c-8.13,0-11.84-3.94-11.15-11.83l4.1-46.85h13.5l-3.93,44.93c-0.11,1.28,0.05,2.13,0.49,2.57c0.44,0.44,1.3,0.66,2.57,0.66h3.59
		c2.47,0,3.82-1.31,4.05-3.94L688.21,271.03z"/>
	<path class="st0" d="M747.23,290.75h-13.27l0.52-5.98c0.11-1.27-0.05-2.13-0.49-2.57c-0.44-0.44-1.3-0.66-2.57-0.66h-4.3
		c-1.27,0-2.17,0.22-2.69,0.66c-0.52,0.44-0.83,1.3-0.94,2.57l-2.73,31.19c-0.11,1.28,0.05,2.13,0.49,2.57
		c0.44,0.44,1.3,0.66,2.57,0.66h4.3c1.27,0,2.17-0.22,2.69-0.66c0.52-0.44,0.83-1.29,0.94-2.57l0.53-6.09h13.27l-0.7,8.01
		c-0.69,7.89-5.38,11.83-14.06,11.83h-11.71c-8.68,0-12.68-3.94-11.99-11.83l3.06-35.01c0.69-7.89,5.38-11.83,14.06-11.83h11.71
		c8.68,0,12.68,3.94,11.99,11.83L747.23,290.75z"/>
	<path class="st1" d="M207.89,284.77v-55.6l0.06-0.2c7.9-3.09,13.5-10.77,13.5-19.76c0-11.3-8.84-20.54-19.98-21.18l-0.65-0.04
		l-0.29,0.01l-0.29-0.01c-11.72,0-21.22,9.5-21.22,21.22c0,9.46,6.19,17.47,14.74,20.21v55.09c-12.45,2.95-21.71,14.13-21.71,27.49
		c0,3.24,0.55,6.34,1.55,9.24l7.05-7.05c-0.08-0.72-0.12-1.45-0.12-2.19c0-10.93,8.86-19.78,19.78-19.78
		c9.98,0,18.22,7.38,19.58,16.99h8.54C227.27,297.46,218.94,287.84,207.89,284.77"/>
	<path class="st2" d="M200.3,297.86c-7.8,0-14.13,6.32-14.13,14.13c0,1.41,0.21,2.78,0.6,4.06l-50.86,50.86
		c-2.74-1.29-5.79-2.02-9.02-2.02c-11.71,0-21.19,9.49-21.19,21.19c0,11.71,9.49,21.19,21.19,21.19c11.7,0,21.19-9.49,21.19-21.19
		c0-3.32-0.76-6.45-2.12-9.25l51.1-51.1c1.04,0.25,2.13,0.38,3.24,0.38c7.8,0,14.13-6.33,14.13-14.13
		C214.43,304.19,208.1,297.86,200.3,297.86"/>
	<path class="st3" d="M169.24,325.59c-1.83-4.17-2.84-8.76-2.84-13.6c0-14.43,9.01-26.74,21.71-31.64v-8.96
		c-17.46,5.24-30.19,21.43-30.19,40.6c0,7.21,1.81,14,4.98,19.94L169.24,325.59z"/>
	<path class="st3" d="M296.27,250.11c-11.71,0-21.19,9.49-21.19,21.19c0,0.63,0.03,1.25,0.09,1.87l-39.05,16.15
		c-5.21-8.21-13.16-14.5-22.57-17.59v9.04c12.15,5.16,20.67,17.2,20.67,31.23c0,4.56-0.91,8.9-2.54,12.87l6.38,6.38
		c2.95-5.78,4.63-12.32,4.63-19.25c0-3.32-0.39-6.55-1.11-9.65l39.46-16.31c3.85,3.98,9.25,6.46,15.23,6.46
		c11.71,0,21.19-9.49,21.19-21.19C317.46,259.6,307.97,250.11,296.27,250.11"/>
	<path class="st3" d="M200.3,345.9c-4.56,0-8.9-0.91-12.87-2.54l-6.38,6.38c5.78,2.95,12.32,4.63,19.25,4.63
		c7.21,0,14-1.81,19.94-4.98l-6.34-6.34C209.74,344.88,205.14,345.9,200.3,345.9"/>
	<path class="st4" d="M151.32,283.8l-26.25-10.9c0.04-0.53,0.07-1.06,0.07-1.61c0-11.71-9.49-21.2-21.19-21.2
		c-11.71,0-21.19,9.49-21.19,21.2c0,11.7,9.49,21.19,21.19,21.19c6.08,0,11.55-2.56,15.42-6.66l26.5,11
		c-1.34,4.83-2.06,9.91-2.06,15.16c0,11.13,3.22,21.52,8.78,30.27l6.18-6.18c-4.12-7.08-6.48-15.31-6.48-24.09
		c0-22.32,15.22-41.07,35.84-46.47v-8.72C172.39,260.26,159.13,270.26,151.32,283.8"/>
	<path class="st4" d="M238.11,282.38l8.09-3.35c-7.79-10.82-19.3-18.78-32.66-21.99v8.78C223.39,268.63,231.94,274.52,238.11,282.38
		"/>
	<path class="st4" d="M242.24,335.42l6.2,6.2c5.31-8.62,8.38-18.76,8.38-29.63c0-3.24-0.28-6.41-0.8-9.5l-8.07,3.34
		c0.26,2.02,0.39,4.08,0.39,6.16C248.34,320.5,246.12,328.49,242.24,335.42"/>
	<path class="st4" d="M224.39,353.55c-7.08,4.12-15.31,6.48-24.09,6.48c-8.51,0-16.5-2.22-23.43-6.1l-6.2,6.2
		c8.62,5.32,18.76,8.38,29.63,8.38c11.14,0,21.52-3.22,30.27-8.78L224.39,353.55z"/>
	<path class="st5" d="M274.49,364.85c-3.17,0-6.17,0.7-8.87,1.95l-40.78-40.78c1.93-3.37,3.19-7.17,3.59-11.23h-8.54
		c-1.36,9.6-9.6,16.99-19.58,16.99c-0.42,0-0.83-0.02-1.24-0.04l-7.23,7.23c2.67,0.84,5.51,1.29,8.46,1.29
		c5.38,0,10.4-1.51,14.68-4.11l40.51,40.52c-1.4,2.83-2.19,6.02-2.19,9.39c0,11.71,9.49,21.19,21.19,21.19s21.19-9.49,21.19-21.19
		C295.68,374.34,286.2,364.85,274.49,364.85"/>
</g>
</svg>
