<?xml version="1.0" encoding="utf-8"?>
<!-- Generator: Adobe Illustrator 28.3.0, SVG Export Plug-In . SVG Version: 6.00 Build 0)  -->
<svg version="1.1" id="Layer_1" xmlns="http://www.w3.org/2000/svg" xmlns:xlink="http://www.w3.org/1999/xlink" x="0px" y="0px"
	 viewBox="0 0 1190.6 841.9" style="enable-background:new 0 0 1190.6 841.9;" xml:space="preserve">
<style type="text/css">
	.st0{fill:#FFFFFF;}
</style>
<g>
	<g>
		<g>
			<path class="st0" d="M538.9,473.6l-2.5-25.9h-27.3l-6.6,25.9h-22.7l36-124.8h30.7l15.4,124.8H538.9z M513.6,430.5h21.2l-5.7-59.7
				L513.6,430.5z"/>
			<path class="st0" d="M594.3,473.6H572l11.6-132.3h22.4L594.3,473.6z"/>
			<path class="st0" d="M656,376.5h5.9c13.6,0,19.8,6.5,18.7,19.6l-5.1,58c-1.1,13.1-8.5,19.6-22.1,19.6h-5.9
				c-7.3,0-11.6-2.8-13.1-8.3l-3.1,35.2H609l10.9-124H642l-0.8,8.9C643.6,379.4,648.5,376.5,656,376.5z M653.3,450.8l4.5-51.6
				c0.2-2.1-0.1-3.5-0.8-4.3c-0.7-0.7-2.1-1.1-4.3-1.1h-5.9c-4.1,0-6.3,2.2-6.7,6.5l-4.3,49.3c-0.4,4.4,1.5,6.5,5.6,6.5h5.9
				c2.1,0,3.6-0.4,4.4-1.1C652.6,454.4,653.1,453,653.3,450.8z"/>
			<path class="st0" d="M734,376.5h5.9c13.6,0,19.8,6.5,18.7,19.6l-6.8,77.5h-22.6l6.5-74.4c0.2-2.1-0.1-3.5-0.8-4.3
				c-0.7-0.7-2.1-1.1-4.3-1.1h-5.9c-4.1,0-6.3,2.2-6.7,6.5l-6.4,73.2h-22.4l11.6-132.3h22.4l-3.8,43.5
				C721.9,379.2,726.7,376.5,734,376.5z"/>
			<path class="st0" d="M815.7,376.5h22.2l-8.5,97.1h-22.6l0.7-8.3c-2.5,5.5-7.3,8.3-14.4,8.3H787c-13.5,0-19.6-6.5-18.5-19.6
				l5.1-58c1.1-13.1,8.4-19.6,21.9-19.6h6.1c7.8,0,12.2,3.2,13.2,9.5L815.7,376.5z M796.2,456.2h5.9c4.1,0,6.3-2.2,6.7-6.5l4.3-49.3
				c0.4-4.4-1.5-6.5-5.6-6.5h-5.9c-2.1,0-3.6,0.4-4.4,1.1c-0.9,0.7-1.4,2.1-1.6,4.3l-4.5,51.6c-0.2,2.1,0.1,3.5,0.8,4.3
				C792.7,455.8,794.1,456.2,796.2,456.2z"/>
			<path class="st0" d="M871.6,456.2h38l-1.5,17.4h-60.9l10.9-124.8h59.3l-1.5,17.4h-36.4l-3,34.6h30.7l-1.5,17.6h-30.7L871.6,456.2
				z"/>
			<path class="st0" d="M970.3,341.2h22.6l-11.6,132.3h-22.2l0.8-9.7c-2.1,6.5-7.1,9.7-14.9,9.7h-6.1c-13.5,0-19.6-6.5-18.5-19.6
				l5.1-58.2c1.1-13.1,8.4-19.6,21.9-19.6h6.1c7.1,0,11.4,2.8,12.9,8.3L970.3,341.2z M948.2,456.2h5.9c4.1,0,6.3-2.2,6.7-6.5
				l4.3-49.3c0.2-2.5-0.1-4.3-0.9-5.2c-0.8-1-2.4-1.5-4.6-1.5h-5.9c-2.1,0-3.6,0.4-4.4,1.1c-0.9,0.7-1.4,2.1-1.6,4.3l-4.5,51.8
				c-0.2,2.1,0.1,3.5,0.8,4.3C944.6,455.8,946,456.2,948.2,456.2z"/>
			<path class="st0" d="M1046.1,376.5h22.6l-8.5,97.1H1038l0.8-9.7c-2.1,6.5-7.1,9.7-14.9,9.7h-6.1c-13.4,0-19.6-6.5-18.5-19.6
				l6.8-77.5h22.4l-6.5,74.4c-0.2,2.1,0.1,3.5,0.8,4.3c0.7,0.7,2.1,1.1,4.3,1.1h5.9c4.1,0,6.3-2.2,6.7-6.5L1046.1,376.5z"/>
		</g>
		<path class="st0" d="M1143.8,409.1h-22l0.9-9.9c0.2-2.1-0.1-3.5-0.8-4.3c-0.7-0.7-2.1-1.1-4.3-1.1h-7.1c-2.1,0-3.6,0.4-4.4,1.1
			c-0.9,0.7-1.4,2.1-1.6,4.3l-4.5,51.6c-0.2,2.1,0.1,3.5,0.8,4.3c0.7,0.7,2.1,1.1,4.3,1.1h7.1c2.1,0,3.6-0.4,4.4-1.1
			c0.9-0.7,1.4-2.1,1.6-4.3l0.9-10.1h22l-1.2,13.3c-1.1,13.1-8.9,19.6-23.3,19.6h-19.4c-14.4,0-21-6.5-19.8-19.6l5.1-58
			c1.1-13.1,8.9-19.6,23.3-19.6h19.4c14.4,0,21,6.5,19.8,19.6L1143.8,409.1z"/>
	</g>
	<g>
		<path class="st0" d="M251,399.2v-92c0-0.1,0.1-0.2,0.1-0.3c13.1-5.1,22.4-17.8,22.4-32.7c0-18.7-14.6-34-33.1-35.1
			c-0.3,0-0.7-0.1-1.1-0.1c-0.2,0-0.3,0-0.5,0c-0.2,0-0.3,0-0.5,0c-19.4,0-35.1,15.7-35.1,35.1c0,15.7,10.2,28.9,24.4,33.4v91.2
			c-20.6,4.9-35.9,23.4-35.9,45.5c0,5.4,0.9,10.5,2.6,15.3l11.7-11.7c-0.1-1.2-0.2-2.4-0.2-3.6c0-18.1,14.7-32.7,32.7-32.7
			c16.5,0,30.2,12.2,32.4,28.1H285C283.1,420.2,269.3,404.3,251,399.2z"/>
		<path class="st0" d="M238.5,420.9c-12.9,0-23.4,10.5-23.4,23.4c0,2.3,0.3,4.6,1,6.7l-84.2,84.2c-4.5-2.1-9.6-3.3-14.9-3.3
			c-19.4,0-35.1,15.7-35.1,35.1S97.6,602,117,602c19.4,0,35.1-15.7,35.1-35.1c0-5.5-1.3-10.7-3.5-15.3l84.6-84.6
			c1.7,0.4,3.5,0.6,5.4,0.6c12.9,0,23.4-10.5,23.4-23.4C261.9,431.3,251.4,420.9,238.5,420.9z"/>
		<g>
			<path class="st0" d="M187.1,466.8c-3-6.9-4.7-14.5-4.7-22.5c0-23.9,14.9-44.3,35.9-52.4v-14.8c-28.9,8.7-50,35.5-50,67.2
				c0,11.9,3,23.2,8.2,33L187.1,466.8z"/>
			<g>
				<path class="st0" d="M397.3,341.8c-19.4,0-35.1,15.7-35.1,35.1c0,1,0.1,2.1,0.1,3.1l-64.6,26.7c-8.6-13.6-21.8-24-37.4-29.1v15
					c20.1,8.5,34.2,28.5,34.2,51.7c0,7.5-1.5,14.7-4.2,21.3l10.6,10.6c4.9-9.6,7.7-20.4,7.7-31.9c0-5.5-0.6-10.8-1.8-16l65.3-27
					c6.4,6.6,15.3,10.7,25.2,10.7c19.4,0,35.1-15.7,35.1-35.1C432.4,357.5,416.7,341.8,397.3,341.8z"/>
				<path class="st0" d="M238.5,500.4c-7.5,0-14.7-1.5-21.3-4.2l-10.6,10.6c9.6,4.9,20.4,7.7,31.9,7.7c11.9,0,23.2-3,33-8.2
					L261,495.7C254.1,498.7,246.5,500.4,238.5,500.4z"/>
			</g>
		</g>
		<g>
			<path class="st0" d="M157.4,397.6l-43.5-18c0.1-0.9,0.1-1.8,0.1-2.7c0-19.4-15.7-35.1-35.1-35.1s-35.1,15.7-35.1,35.1
				c0,19.4,15.7,35.1,35.1,35.1c10.1,0,19.1-4.2,25.5-11l43.9,18.2c-2.2,8-3.4,16.4-3.4,25.1c0,18.4,5.3,35.6,14.5,50.1l10.2-10.2
				c-6.8-11.7-10.7-25.3-10.7-39.9c0-36.9,25.2-68,59.3-76.9v-14.4C192.3,358.6,170.3,375.2,157.4,397.6z"/>
			<path class="st0" d="M301.1,395.2l13.4-5.5c-12.9-17.9-31.9-31.1-54.1-36.4v14.5C276.7,372.5,290.9,382.2,301.1,395.2z"/>
			<g>
				<path class="st0" d="M307.9,483l10.3,10.3c8.8-14.3,13.9-31.1,13.9-49c0-5.4-0.5-10.6-1.3-15.7l-13.4,5.5
					c0.4,3.3,0.7,6.7,0.7,10.2C318,458.3,314.3,471.6,307.9,483z"/>
				<path class="st0" d="M278.4,513c-11.7,6.8-25.3,10.7-39.9,10.7c-14.1,0-27.3-3.7-38.8-10.1l-10.3,10.3
					c14.3,8.8,31.1,13.9,49,13.9c18.4,0,35.6-5.3,50.1-14.5L278.4,513z"/>
			</g>
		</g>
		<path class="st0" d="M361.3,531.8c-5.2,0-10.2,1.2-14.7,3.2l-67.5-67.5c3.2-5.6,5.3-11.9,5.9-18.6h-14.1
			c-2.2,15.9-15.9,28.1-32.4,28.1c-0.7,0-1.4,0-2-0.1l-12,12c4.4,1.4,9.1,2.1,14,2.1c8.9,0,17.2-2.5,24.3-6.8l67.1,67.1
			c-2.3,4.7-3.6,10-3.6,15.5c0,19.4,15.7,35.1,35.1,35.1c19.4,0,35.1-15.7,35.1-35.1C396.4,547.5,380.7,531.8,361.3,531.8z"/>
	</g>
</g>
<g>
</g>
<g>
</g>
<g>
</g>
<g>
</g>
<g>
</g>
<g>
</g>
</svg>
