<?xml version="1.0" encoding="utf-8"?>
<!-- Generator: Adobe Illustrator 28.2.0, SVG Export Plug-In . SVG Version: 6.00 Build 0)  -->
<svg version="1.1" id="Layer_1" xmlns="http://www.w3.org/2000/svg" xmlns:xlink="http://www.w3.org/1999/xlink" x="0px" y="0px"
	 viewBox="0 0 595.28 841.89" style="enable-background:new 0 0 595.28 841.89;" xml:space="preserve">
<style type="text/css">
	.st0{fill:#505050;}
	.st1{fill:#E93C26;}
	.st2{fill:#8AC14D;}
	.st3{fill:#5F81BD;}
	.st4{fill:#F39E23;}
	.st5{fill:#AF559B;}
</style>
<path class="st0" d="M297.98,287.5c10.76-0.14,21.4,0.78,31.76,3.87c17.12,5.11,30.03,15.66,39.43,30.7
	c4.17,6.67,7.75,13.6,9.69,21.28c2.43,9.64,2.17,19.26-0.05,28.9c-1.72,7.47-2.84,15.05-3,22.72c-0.1,4.85,0.45,9.64,2.11,14.27
	c1.54,4.31,1.53,8.84,1.29,13.32c-0.83,15.62-4.52,30.36-13.93,43.23c-1.51,2.06-2.03,4.48-2.44,6.94
	c-2.06,12.41-6.41,24.09-11.36,35.59c-1.87,4.35-3.16,8.89-3.53,13.65c-0.25,3.21,0.17,6.31,1.19,9.35c0.6,1.79,2.06,2.52,3.7,3.04
	c8.66,2.76,17.31,5.57,25.98,8.3c21.36,6.74,42.48,14.14,63.38,22.17c1.94,0.74,1.94,0.76,0.64,2.29
	c-15.2,17.81-32.6,33.01-53.01,44.63c-16.85,9.59-34.83,16.14-53.89,19.76c-15.06,2.86-30.26,3.89-45.55,3.39
	c-27.63-0.91-54.03-6.95-78.76-19.57c-16.13-8.23-30.56-18.83-43.56-31.41c-5.39-5.22-10.3-10.87-15.34-16.41
	c-1.05-1.15-0.89-1.53,0.51-2.16c25.54-11.38,51.88-20.57,78.67-28.5c2.7-0.8,5.38-1.68,8.09-2.45c2.02-0.58,3.2-1.8,3.73-3.86
	c1.41-5.53,0.89-11.11,0.42-16.66c-0.46-5.43-2.08-10.57-4.25-15.58c-3.79-8.75-5.97-18-7.96-27.29c-0.28-1.32-0.79-2.48-1.54-3.61
	c-7.51-11.39-12.02-23.92-13.74-37.42c-0.81-6.37-0.59-12.69,1-19c2.68-10.65,1.81-21.37-0.11-32.05
	c-0.94-5.26-2.07-10.5-2.81-15.79c-1.17-8.43-0.01-16.65,2.9-24.62c5.14-14.04,13.2-26.05,25.09-35.28
	c9.23-7.17,19.86-11.29,31.21-13.65C281.86,287.92,289.9,287.43,297.98,287.5z"/>
<g>
	<path class="st1" d="M489.54,408.14c2.79,13.16,4.26,26.81,4.26,40.8c0,71.47-38.25,133.99-95.38,168.25L415,647.32
		c67.74-40.12,113.17-113.94,113.17-198.38c0-16.63-1.78-32.85-5.13-48.49L489.54,408.14z"/>
	<path class="st2" d="M316.42,253.79c84.51,7.98,153.4,69.6,172.26,150.45l33.51-7.69c-22.12-95.13-103.17-167.64-202.58-176.99
		L316.42,253.79z"/>
	<path class="st3" d="M120.03,366.12c31.22-66.88,99.05-113.23,177.73-113.23c4.94,0,9.83,0.19,14.68,0.55l3.18-34.23
		c-5.89-0.45-11.85-0.68-17.86-0.68c-93.77,0-174.46,56.02-210.42,136.42L120.03,366.12z"/>
	<path class="st4" d="M142.45,619.14l23.26-25.3c-39.32-35.85-63.99-87.49-63.99-144.9c0-28.17,5.95-54.95,16.65-79.16l-32.64-11.15
		c-11.83,27.73-18.38,58.26-18.38,90.31C67.35,516.36,96.3,577,142.45,619.14z"/>
	<path class="st5" d="M400.46,626.39l-4.68-7.64c-28.83,16.68-62.31,26.23-98.02,26.23c-49.43,0-94.58-18.3-129.06-48.49
		l-23.26,25.31c40.61,35.81,93.92,57.55,152.33,57.55c41.91,0,81.19-11.2,115.05-30.75L400.46,626.39z"/>
</g>
</svg>
